<svg width="80" height="80" viewBox="0 0 80 80" fill="none" xmlns="http://www.w3.org/2000/svg">
<path d="M40 0C17.9087 0 0 17.9087 0 40C0 62.0925 17.9087 80 40 80C62.0925 80 80 62.0925 80 40C80 17.9087 62.0925 0 40 0ZM40 75.0788C20.7013 75.0788 5 59.2987 5 39.9998C5 20.7011 20.7013 4.99984 40 4.99984C59.2988 4.99984 75 20.7012 75 39.9998C75 59.2985 59.2988 75.0788 40 75.0788ZM55.9637 25.3638L32.4949 48.98L21.9262 38.4113C20.9499 37.435 19.3674 37.435 18.3899 38.4113C17.4137 39.3875 17.4137 40.97 18.3899 41.9463L30.7637 54.3213C31.7399 55.2962 33.3224 55.2962 34.2999 54.3213C34.4124 54.2088 34.5088 54.0862 34.5962 53.9587L59.5013 28.8999C60.4763 27.9237 60.4763 26.3412 59.5013 25.3638C58.5238 24.3875 56.9412 24.3875 55.9637 25.3638Z" fill="#C84A2E"/>
</svg>
